<svg width="12" height="13" viewBox="0 0 12 13" fill="none" xmlns="http://www.w3.org/2000/svg">
<path d="M10.6779 0.93066H7.86542L7.63104 0.508785C7.53729 0.321285 7.34979 0.18066 7.13885 0.18066H4.44354C4.2326 0.18066 4.0451 0.321285 3.95135 0.508785L3.74042 0.93066H0.927917C0.71698 0.93066 0.552917 1.11816 0.552917 1.30566V2.05566C0.552917 2.2666 0.71698 2.43066 0.927917 2.43066H10.6779C10.8654 2.43066 11.0529 2.2666 11.0529 2.05566V1.30566C11.0529 1.11816 10.8654 0.93066 10.6779 0.93066ZM1.7951 11.126C1.81854 11.7353 2.31073 12.1807 2.9201 12.1807H8.66229C9.27167 12.1807 9.76385 11.7353 9.78729 11.126L10.3029 3.18066H1.30292L1.7951 11.126Z" fill="#BEBEBE"/>
</svg>
